<svg width="16" height="22" viewBox="0 0 16 22" fill="none" xmlns="http://www.w3.org/2000/svg">
<path d="M15.5 8.20039C15.5 4.05412 12.1392 0.6875 8 0.6875C3.86085 0.6875 0.5 4.05412 0.5 8.20039C0.5 11.6024 2.87028 14.6501 6.125 15.5006L6.76179 17.2017C4.99292 17.308 2.02123 17.7332 2.02123 19.2216C2.02123 21.2416 7.39858 21.3125 8.03538 21.3125C8.67217 21.3125 14.0495 21.2416 14.0495 19.2216C14.0495 17.6978 11.0425 17.308 9.27358 17.2017L9.875 15.5361C13.1297 14.6856 15.5 11.6379 15.5 8.20039ZM10.441 8.20039C10.441 9.54704 9.34434 10.6456 8 10.6456C6.65566 10.6456 5.55896 9.54704 5.55896 8.20039C5.55896 6.85374 6.65566 5.75515 8 5.75515C9.34434 5.75515 10.441 6.85374 10.441 8.20039ZM12.7759 19.2216C12.4222 19.576 10.6887 20.1076 8 20.1076C5.3467 20.1076 3.61321 19.576 3.22406 19.2216C3.54245 18.9027 4.99292 18.442 7.18632 18.3711L7.57547 19.3988C7.64623 19.576 7.78774 19.6823 8 19.6823C8.17689 19.6823 8.35377 19.576 8.42453 19.3988L8.7783 18.3711C11.0071 18.442 12.4222 18.9027 12.7759 19.2216Z" fill="white"/>
</svg>
