<svg width="16" height="17" viewBox="0 0 16 17" fill="none" xmlns="http://www.w3.org/2000/svg">
<path fill-rule="evenodd" clip-rule="evenodd" d="M5.5 14.0321C5.5 14.0321 11 10.3654 11 6.08765C11 4.62896 10.4205 3.23001 9.38909 2.19856C8.35764 1.16711 6.95869 0.587646 5.5 0.587646C4.04131 0.587646 2.64236 1.16711 1.61091 2.19856C0.579463 3.23001 0 4.62896 0 6.08765C0 10.3654 5.5 14.0321 5.5 14.0321ZM7.33388 6.08756C7.33388 7.10008 6.51307 7.92089 5.50055 7.92089C4.48803 7.92089 3.66721 7.10008 3.66721 6.08756C3.66721 5.07504 4.48803 4.25422 5.50055 4.25422C6.51307 4.25422 7.33388 5.07504 7.33388 6.08756Z" fill="#FF1D6C"/>
</svg>
